<?xml version="1.0" standalone="no"?>
<!DOCTYPE svg PUBLIC "-//W3C//DTD SVG 20010904//EN"
 "http://www.w3.org/TR/2001/REC-SVG-20010904/DTD/svg10.dtd">
<svg version="1.0" xmlns="http://www.w3.org/2000/svg"
 width="260.000000pt" height="260.000000pt" viewBox="0 0 260.000000 260.000000"
 preserveAspectRatio="xMidYMid meet">
<metadata>
Created by potrace 1.14, written by Peter Selinger 2001-2017
</metadata>
<g transform="translate(0.000000,260.000000) scale(0.100000,-0.100000)"
fill="#000000" stroke="none">
<path d="M5 2588 c-3 -7 -4 -591 -3 -1298 l3 -1285 1295 0 1295 0 0 1295 0
1295 -1293 3 c-1029 2 -1294 0 -1297 -10z m1610 -703 c30 -29 32 -55 6 -86
l-19 -24 -429 3 c-235 2 -435 5 -444 8 -9 3 -22 18 -29 33 -13 33 -3 63 28 80
11 7 173 11 440 11 l423 0 24 -25z m274 1 l23 -25 -4 -488 -4 -488 -27 -52
c-44 -86 -127 -135 -228 -134 -192 1 -314 203 -223 371 65 122 199 168 334
116 13 -6 15 36 15 340 l0 346 24 19 c32 26 63 24 90 -5z m-274 -271 c29 -29
32 -55 7 -85 l-17 -21 -433 1 c-237 0 -438 3 -446 6 -42 16 -38 96 6 114 13 5
211 9 441 9 l418 1 24 -25z m-226 -269 c25 -23 27 -63 4 -88 -15 -17 -39 -18
-335 -18 -239 0 -317 3 -312 12 4 7 3 8 -5 4 -16 -10 -41 18 -41 46 1 53 0 53
277 59 363 8 387 7 412 -15z m-135 -272 c21 -20 20 -63 -1 -86 -14 -15 -32
-18 -117 -18 l-101 0 -60 51 c-33 28 -61 55 -63 60 -2 5 71 9 161 9 137 0 168
-3 181 -16z m46 -276 c21 -23 26 -53 11 -63 -5 -3 -27 11 -48 30 -21 19 -42
35 -46 35 -5 0 -5 5 -2 10 11 18 63 11 85 -12z"/>
</g>
</svg>
