<?xml version="1.0" standalone="no"?>
<!DOCTYPE svg PUBLIC "-//W3C//DTD SVG 20010904//EN"
 "http://www.w3.org/TR/2001/REC-SVG-20010904/DTD/svg10.dtd">
<svg version="1.0" xmlns="http://www.w3.org/2000/svg"
 width="260.000000pt" height="260.000000pt" viewBox="0 0 260.000000 260.000000"
 preserveAspectRatio="xMidYMid meet">
<metadata>
Created by potrace 1.14, written by Peter Selinger 2001-2017
</metadata>
<g transform="translate(0.000000,260.000000) scale(0.100000,-0.100000)"
fill="#000000" stroke="none">
<path d="M1263 2574 c-18 -14 -33 -23 -33 -19 0 3 -11 -2 -25 -11 -14 -9 -24
-23 -23 -32 2 -8 -3 -16 -10 -18 -7 -1 -8 0 -2 3 15 7 2 23 -15 17 -8 -4 -12
-11 -8 -17 4 -6 0 -8 -10 -4 -8 3 -21 -1 -27 -9 -7 -8 -19 -14 -26 -14 -8 0
-14 -5 -14 -11 0 -5 -3 -8 -8 -5 -8 5 -49 -22 -44 -29 6 -12 1 -18 -6 -7 -7
10 -14 8 -34 -8 -15 -11 -31 -20 -36 -20 -6 0 -12 -3 -14 -7 -2 -5 -32 -23
-68 -42 -36 -18 -73 -43 -83 -55 -10 -11 -16 -15 -12 -8 6 11 3 12 -14 3 -11
-7 -21 -16 -21 -22 0 -6 -4 -8 -9 -4 -5 3 -15 -1 -23 -8 -7 -7 -32 -21 -55
-31 -23 -10 -40 -22 -38 -26 3 -5 -2 -11 -11 -14 -8 -3 -12 -2 -9 4 3 5 -8 2
-24 -8 -17 -9 -31 -22 -31 -29 0 -7 -7 -10 -17 -6 -13 5 -15 2 -10 -18 4 -19
3 -21 -5 -8 -10 14 -15 13 -54 -8 -31 -17 -41 -29 -38 -41 4 -13 3 -14 -4 -4
-14 20 -117 -39 -116 -67 1 -11 -3 -18 -7 -15 -5 3 -7 10 -4 15 7 11 -5 12
-22 1 -7 -4 -11 -18 -8 -30 2 -12 0 -24 -5 -27 -5 -3 -7 3 -5 15 2 11 1 22 -3
24 -11 7 -47 -17 -51 -34 -8 -29 -8 -205 0 -227 5 -14 4 -24 -4 -27 -9 -5 -9
-7 0 -12 9 -4 10 -11 3 -25 -7 -13 -7 -19 0 -19 5 0 10 -5 10 -11 0 -5 -3 -8
-8 -6 -9 6 -9 -104 1 -120 4 -6 3 -14 -1 -17 -11 -7 -9 -76 2 -95 6 -8 5 -12
0 -8 -5 3 -9 -12 -9 -33 0 -21 2 -37 6 -35 3 2 6 -2 6 -10 0 -8 -4 -12 -9 -9
-10 6 -11 -10 -1 -20 10 -10 11 -46 0 -39 -5 3 -6 -4 -1 -18 4 -13 7 -28 6
-34 -7 -50 -5 -155 3 -155 6 0 6 -3 -1 -8 -11 -8 -14 -53 -3 -46 4 2 11 -1 15
-7 4 -7 3 -9 -4 -5 -17 10 -24 -11 -11 -35 6 -12 7 -19 2 -16 -4 3 -8 -53 -8
-123 l0 -128 394 -229 c217 -125 469 -271 560 -324 l166 -96 3 59 c2 32 7 56
12 53 5 -3 12 -1 15 5 4 6 1 9 -7 8 -9 -2 -14 11 -16 44 -2 28 1 48 7 48 6 0
8 -8 5 -17 -5 -15 -4 -15 4 -3 6 8 8 18 6 22 -3 5 3 11 13 15 10 4 40 20 66
35 27 16 52 26 57 23 5 -3 12 0 16 6 4 8 3 9 -4 5 -7 -4 -12 -5 -12 -2 0 5 78
46 87 46 3 0 1 -5 -3 -12 -4 -7 -3 -8 5 -4 6 4 9 11 6 16 -8 13 53 42 68 34 7
-4 9 -4 5 1 -8 9 31 42 45 37 4 -1 7 2 7 8 0 5 5 10 11 10 5 0 7 -5 3 -12 -4
-7 -3 -8 4 -4 7 4 12 14 12 22 0 8 5 12 10 9 6 -3 10 -1 10 5 0 7 7 9 16 6 8
-3 13 -2 10 3 -7 11 43 33 56 25 6 -4 8 -2 5 3 -7 10 20 28 36 25 4 -1 7 2 7
8 0 10 69 49 81 46 4 0 16 7 27 17 12 11 26 16 34 11 7 -4 10 -4 6 1 -4 4 3
16 15 25 22 18 37 18 37 -1 0 -6 -4 -8 -9 -5 -10 7 -43 -39 -34 -48 10 -10 33
-7 33 4 0 5 -7 7 -16 3 -14 -5 -14 -3 -3 15 7 11 18 20 23 19 6 -1 10 9 8 22
-2 20 0 22 13 11 13 -11 14 -10 9 5 -6 14 -4 16 7 9 21 -13 47 -15 54 -5 3 5
1 12 -5 16 -5 3 -10 11 -10 16 0 6 4 8 8 5 5 -3 18 3 29 14 12 10 24 16 27 13
3 -4 6 0 6 7 0 7 3 10 7 6 4 -4 8 -15 8 -24 0 -9 6 -16 13 -14 6 1 12 -4 12
-11 0 -27 -14 -27 -32 0 -10 16 -18 24 -18 20 0 -4 7 -19 16 -32 20 -31 45
-22 42 16 -2 23 -5 26 -17 16 -11 -10 -13 -9 -9 3 3 8 14 15 26 14 12 0 18 4
15 9 -3 5 -14 7 -24 4 -19 -5 -27 8 -10 15 5 2 11 10 13 18 2 8 8 18 13 22 6
5 5 8 -2 8 -7 0 -13 5 -13 10 0 7 7 7 21 0 19 -11 20 -13 4 -37 -10 -14 -12
-23 -7 -19 6 3 13 1 15 -4 3 -6 4 -5 3 2 -2 7 1 21 5 30 7 12 3 22 -15 36 -18
14 -24 27 -23 53 1 19 7 37 12 41 6 5 5 8 -2 8 -7 0 -13 5 -13 11 0 5 5 7 10
4 6 -3 10 -2 10 3 0 5 9 19 20 32 22 26 26 40 9 40 -5 0 -8 -4 -4 -9 3 -5 -4
-16 -15 -24 -11 -7 -17 -17 -13 -20 3 -4 2 -7 -4 -7 -6 0 -9 156 -9 452 1 350
-2 453 -11 453 -7 0 -21 8 -32 17 -11 9 -23 13 -27 10 -5 -4 -2 1 5 10 12 16
10 17 -17 13 -21 -2 -36 3 -48 16 -9 10 -21 16 -27 12 -6 -3 -7 -1 -3 5 4 7 2
13 -3 13 -6 1 -17 2 -23 3 -7 1 -11 10 -10 21 3 17 2 17 -14 4 -13 -11 -18
-11 -21 -1 -3 6 -11 12 -18 12 -7 0 -26 12 -43 28 -29 26 -39 31 -72 37 -17 2
-21 24 -7 43 13 17 1 15 -29 -4 -23 -16 -24 -16 -17 2 6 17 5 18 -12 4 -17
-13 -18 -13 -10 0 16 26 16 50 1 44 -8 -3 -12 -12 -9 -20 9 -23 -15 -16 -29 9
-7 12 -12 26 -13 31 0 5 -6 11 -13 14 -7 2 -10 -2 -6 -11 8 -21 -11 -30 -26
-12 -7 8 -20 15 -29 15 -14 1 -14 2 2 11 9 5 17 14 17 19 0 14 -23 8 -38 -10
-10 -13 -12 -13 -10 0 2 8 -3 15 -9 16 -7 1 -16 3 -20 4 -5 1 -12 2 -18 1 -5
-1 -2 5 7 12 10 8 15 17 11 21 -3 3 -15 -2 -25 -11 -18 -16 -19 -16 -25 5 -6
23 -18 29 -26 12 -3 -6 -4 -5 -3 2 2 7 12 12 23 11 14 -2 19 4 18 23 0 14 -7
29 -15 34 -18 12 -30 13 -29 3 4 -27 -1 -35 -16 -23 -10 8 -15 9 -15 2 0 -6 8
-15 18 -21 15 -9 15 -10 -5 -8 -12 0 -19 5 -16 11 4 5 -1 7 -10 3 -10 -4 -21
3 -32 19 -13 20 -19 23 -31 13 -8 -6 -14 -9 -14 -6 0 2 6 10 14 16 11 9 18 8
30 -4 14 -15 16 -15 16 -1 0 24 -35 39 -50 21 -7 -8 -17 -15 -22 -15 -6 0 7
16 28 35 20 19 34 38 31 42 -4 3 -21 -8 -38 -25 -17 -18 -36 -32 -42 -32 -7 0
5 14 26 31 20 17 37 35 37 41 0 6 -6 6 -15 -2 -9 -8 -15 -8 -15 -2 0 18 24 20
43 4 9 -8 17 -10 17 -4 0 6 -8 19 -17 28 -17 17 -17 18 0 11 13 -5 17 -3 14 5
-2 7 -13 12 -23 10 -15 -2 -16 -1 -4 7 9 7 19 6 27 -1 8 -6 13 -7 13 -1 0 6
-20 21 -43 33 -42 22 -45 22 -68 6 -13 -9 -23 -20 -21 -23 2 -4 -2 -9 -10 -11
-9 -2 -8 0 2 7 8 6 11 11 5 11 -5 0 1 9 15 20 25 19 25 19 5 34 -14 10 -24 11
-33 4 -7 -6 -15 -8 -19 -4 -3 3 0 6 7 6 9 0 8 6 -5 20 -23 25 -23 25 -62 -6z
m52 6 c3 -5 2 -10 -4 -10 -5 0 -13 5 -16 10 -3 6 -2 10 4 10 5 0 13 -4 16 -10z
m-15 -20 c18 -12 2 -12 -25 0 -13 6 -15 9 -5 9 8 0 22 -4 30 -9z m-54 -48 c-4
-3 -11 0 -16 8 -15 24 -11 33 6 15 9 -9 13 -19 10 -23z m64 25 c14 0 19 -2 13
-4 -7 -3 -13 -12 -13 -21 -1 -15 -2 -15 -11 1 -5 9 -16 17 -24 17 -8 0 -17 5
-21 12 -5 8 -2 9 12 3 10 -4 30 -8 44 -8z m60 2 c0 -5 -3 -8 -8 -5 -4 2 -15
-9 -24 -25 -16 -27 -16 -29 2 -39 15 -8 22 -5 37 13 17 22 43 42 43 34 0 -6
-32 -40 -53 -56 -15 -12 -20 -11 -36 3 -19 17 -19 18 1 52 19 33 38 45 38 23z
m-84 -31 c4 -7 3 -8 -4 -4 -7 4 -12 2 -12 -3 0 -6 -5 -11 -11 -11 -8 0 -8 5 1
15 15 18 17 18 26 3z m148 -22 c-3 -9 -10 -16 -15 -16 -5 0 -4 9 3 20 14 22
21 20 12 -4z m-198 -1 c-3 -8 -1 -15 4 -15 5 0 14 -10 21 -21 6 -13 7 -19 1
-15 -6 3 -13 0 -16 -6 -3 -7 -3 -2 0 11 3 13 2 21 -3 18 -5 -3 -15 3 -22 15
-7 11 -8 17 -2 13 6 -3 11 -1 11 4 0 6 3 11 6 11 3 0 4 -7 0 -15z m-32 -11 c3
-8 2 -12 -4 -9 -6 3 -10 10 -10 16 0 14 7 11 14 -7z m86 6 c-8 -5 -19 -10 -25
-10 -5 0 -3 5 5 10 8 5 20 10 25 10 6 0 3 -5 -5 -10z m-110 -15 c9 -10 9 -15
1 -15 -6 0 -11 4 -11 9 0 5 -8 12 -17 14 -15 4 -15 5 -2 6 9 0 22 -6 29 -14z
m-50 -5 c0 -5 -4 -10 -10 -10 -5 0 -10 5 -10 10 0 6 5 10 10 10 6 0 10 -4 10
-10z m169 -7 c-7 -10 -14 -19 -15 -21 -1 -2 -4 4 -8 13 -3 9 -2 13 4 10 6 -3
10 -1 10 4 0 6 5 11 11 11 8 0 7 -6 -2 -17z m124 -11 c-10 -7 -17 -19 -15 -27
1 -7 -9 -25 -23 -39 -14 -14 -25 -21 -25 -15 0 5 9 17 20 26 28 25 25 38 -5
19 -29 -19 -35 -20 -35 -5 0 5 3 8 8 6 4 -3 21 6 37 19 33 26 23 33 -13 8 -20
-14 -24 -14 -44 0 -12 9 -18 16 -12 16 5 0 15 -5 21 -11 8 -8 17 -7 33 4 12 8
32 14 46 13 22 -1 23 -2 7 -14z m-320 -10 c-2 -7 5 -12 16 -12 10 0 24 -7 31
-15 13 -15 30 -12 30 6 0 6 -5 7 -10 4 -6 -3 -13 1 -16 9 -3 9 -11 13 -17 9
-6 -3 -7 -1 -3 5 10 17 26 15 26 -4 0 -8 4 -13 9 -9 16 9 24 -15 10 -31 -10
-13 -14 -13 -28 0 -9 8 -25 16 -36 18 -11 2 -19 10 -17 17 2 8 -4 10 -17 6
-11 -3 -22 -2 -24 3 -3 4 6 8 21 7 16 0 26 -6 25 -13z m112 8 c-3 -5 -1 -10 4
-10 6 0 11 -5 11 -10 0 -6 -8 -5 -19 2 -19 12 -19 28 0 28 6 0 7 -4 4 -10z
m-169 -36 c-3 -15 -8 -29 -11 -32 -3 -3 -3 5 -1 19 2 13 5 27 5 32 1 4 3 7 6
7 3 0 3 -12 1 -26z m281 -10 c1 -20 -1 -24 -6 -15 -5 8 -7 20 -4 28 4 9 0 11
-13 6 -12 -4 -15 -3 -10 6 13 20 31 6 33 -25z m-53 11 c-4 -9 -15 -20 -26 -26
-13 -7 -18 -7 -14 -1 3 6 0 13 -6 16 -7 3 -2 3 11 0 15 -4 21 -2 17 4 -5 9 0
13 21 21 1 1 0 -6 -3 -14z m-284 -5 c0 -5 -5 -10 -11 -10 -5 0 -7 5 -4 10 3 6
8 10 11 10 2 0 4 -4 4 -10z m97 4 c-3 -3 -12 -4 -19 -1 -8 3 -5 6 6 6 11 1 17
-2 13 -5z m53 -45 c-9 -16 -15 -17 -31 -9 -11 6 -17 15 -14 20 3 5 -4 8 -15 7
-11 -1 -20 -7 -20 -14 0 -7 -5 -13 -10 -13 -7 0 -7 6 -1 19 10 18 52 24 50 7
0 -5 5 -12 12 -17 21 -12 30 13 11 28 -15 12 -14 13 6 3 18 -9 20 -14 12 -31z
m81 2 c6 -14 5 -20 -2 -16 -5 4 -16 2 -24 -5 -11 -9 -16 -7 -25 9 -7 14 -7 21
0 21 5 0 10 -7 10 -16 0 -14 3 -14 15 -4 17 14 21 35 5 25 -5 -3 -10 -1 -10 5
0 19 22 6 31 -19z m-251 9 c0 -5 -8 -10 -17 -10 -15 0 -16 2 -3 10 19 12 20
12 20 0z m45 -10 c-3 -5 -11 -10 -16 -10 -6 0 -7 5 -4 10 3 6 11 10 16 10 6 0
7 -4 4 -10z m-31 -39 c0 -14 5 -21 17 -21 12 0 16 5 13 15 -10 26 6 36 31 19
14 -9 22 -20 19 -25 -3 -5 4 -9 15 -9 12 0 20 6 19 12 -2 7 8 14 22 15 24 2
24 2 2 -5 -13 -4 -23 -11 -23 -17 1 -5 -9 -10 -21 -10 -13 0 -22 5 -21 11 1 5
-7 16 -18 23 -18 11 -20 10 -17 -11 2 -19 -2 -23 -22 -23 -21 0 -24 4 -22 24
2 14 0 21 -6 17 -6 -4 -13 -2 -16 3 -4 5 2 8 11 7 11 -2 18 -12 17 -25z m106
19 c0 -5 -4 -10 -10 -10 -5 0 -10 5 -10 10 0 6 5 10 10 10 6 0 10 -4 10 -10z
m80 -25 c0 -5 -5 -3 -10 5 -5 8 -10 20 -10 25 0 6 5 3 10 -5 5 -8 10 -19 10
-25z m-285 -4 c-6 -5 -25 10 -25 20 0 5 6 4 14 -3 8 -7 12 -15 11 -17z m65 9
c0 -5 -4 -10 -10 -10 -5 0 -10 5 -10 10 0 6 5 10 10 10 6 0 10 -4 10 -10z
m-102 -25 c-3 -3 -9 2 -12 12 -6 14 -5 15 5 6 7 -7 10 -15 7 -18z m-23 5 c3
-5 1 -10 -4 -10 -6 0 -11 5 -11 10 0 6 2 10 4 10 3 0 8 -4 11 -10z m325 6 c0
-3 -4 -8 -10 -11 -5 -3 -10 -1 -10 4 0 6 5 11 10 11 6 0 10 -2 10 -4z m412
-18 c-7 -7 -12 -8 -12 -2 0 6 3 14 7 17 3 4 9 5 12 2 2 -3 -1 -11 -7 -17z
m-677 -17 c-6 -5 -25 10 -25 20 0 5 6 4 14 -3 8 -7 12 -15 11 -17z m85 8 c0
-6 -4 -7 -10 -4 -5 3 -10 11 -10 16 0 6 5 7 10 4 6 -3 10 -11 10 -16z m-45 0
c11 -16 1 -19 -13 -3 -7 8 -8 14 -3 14 5 0 13 -5 16 -11z m123 -1 c-2 -6 -10
-13 -16 -14 -7 -1 -8 0 -2 3 5 2 8 9 4 14 -3 5 0 9 6 9 7 0 10 -5 8 -12z m-48
-11 c-9 -7 -14 -21 -13 -32 l3 -20 -9 20 c-6 14 -5 24 7 33 9 6 18 12 21 12 3
0 -1 -6 -9 -13z m90 8 c0 -2 -10 -9 -22 -15 -22 -11 -22 -10 -4 4 21 17 26 19
26 11z m-228 -27 c-7 -7 -16 -6 -29 1 -16 11 -15 11 6 5 17 -4 21 -3 16 6 -6
9 -4 11 4 5 9 -5 9 -11 3 -17z m-99 -12 c3 -8 0 -17 -7 -19 -10 -4 -12 1 -9
14 6 23 9 24 16 5z m47 4 c0 -5 -2 -10 -4 -10 -3 0 -8 5 -11 10 -3 6 -1 10 4
10 6 0 11 -4 11 -10z m154 -1 c3 -3 -4 -5 -14 -6 -11 -1 -20 2 -20 7 0 8 25 8
34 -1z m66 1 c0 -5 -2 -10 -4 -10 -3 0 -8 5 -11 10 -3 6 -1 10 4 10 6 0 11 -4
11 -10z m-140 -20 c0 -5 -4 -10 -10 -10 -5 0 -10 5 -10 10 0 6 5 10 10 10 6 0
10 -4 10 -10z m-159 -17 c12 -14 12 -16 0 -8 -11 6 -13 4 -9 -7 4 -8 0 -15 -7
-15 -10 0 -11 5 -5 17 5 10 6 20 3 24 -3 3 -4 6 -1 6 3 0 12 -8 19 -17z m100
-10 c-12 -20 -14 -14 -5 12 4 9 9 14 11 11 3 -2 0 -13 -6 -23z m92 6 c-8 -8
-13 -7 -18 2 -5 8 -4 10 3 5 7 -4 12 -2 12 5 0 7 3 9 7 6 4 -4 2 -12 -4 -18z
m-273 1 c0 -5 -5 -10 -11 -10 -5 0 -7 5 -4 10 3 6 8 10 11 10 2 0 4 -4 4 -10z
m207 -12 c-3 -8 -6 -5 -6 6 -1 11 2 17 5 13 3 -3 4 -12 1 -19z m-50 -2 c0 -8
-6 -12 -15 -9 -11 5 -11 7 0 14 7 5 13 9 14 9 0 0 1 -6 1 -14z m153 10 c0 -2
-7 -7 -16 -10 -8 -3 -12 -2 -9 4 6 10 25 14 25 6z m-65 -34 c-3 -3 -11 0 -18
7 -9 10 -8 11 6 5 10 -3 15 -9 12 -12z m-266 -15 c0 -9 -2 -8 -6 1 -2 6 -10 9
-15 6 -7 -4 -8 -2 -4 5 9 13 26 5 25 -12z m161 19 c0 -2 -7 -7 -16 -10 -8 -3
-12 -2 -9 4 6 10 25 14 25 6z m55 -4 c-3 -3 0 -10 5 -17 7 -8 4 -11 -10 -10
-11 1 -23 5 -27 10 -5 4 -2 4 6 0 10 -6 13 -4 9 7 -4 9 0 15 8 15 8 0 12 -3 9
-5z m-275 -6 c0 -2 -8 -10 -17 -17 -16 -13 -17 -12 -4 4 13 16 21 21 21 13z
m174 -5 c4 -5 -3 -7 -14 -4 -23 6 -26 13 -6 13 8 0 17 -4 20 -9z m-57 -25 c0
-15 -21 -16 -34 -1 -4 4 -3 5 4 1 6 -3 14 -2 18 4 8 14 12 13 12 -4z m-103
-12 c3 -8 2 -12 -4 -9 -6 3 -10 10 -10 16 0 14 7 11 14 -7z m228 5 c2 -2 1 -3
-1 -2 -2 1 -12 -2 -22 -8 -14 -7 -17 -6 -13 5 5 13 29 16 36 5z m-48 -25 c3
-8 2 -12 -4 -9 -6 3 -10 10 -10 16 0 14 7 11 14 -7z m-137 -16 c0 -13 -1 -17
-4 -10 -3 6 -10 9 -16 5 -7 -4 -6 1 2 10 17 21 17 21 18 -5z m70 16 c-3 -3
-12 -4 -19 -1 -8 3 -5 6 6 6 11 1 17 -2 13 -5z m-247 -14 c0 -5 -5 -10 -11
-10 -5 0 -7 5 -4 10 3 6 8 10 11 10 2 0 4 -4 4 -10z m44 -18 c3 -5 -1 -9 -9
-9 -8 0 -15 4 -15 9 0 4 4 8 9 8 6 0 12 -4 15 -8z m107 -9 c13 -16 12 -17 -3
-4 -10 7 -18 15 -18 17 0 8 8 3 21 -13z m124 -1 c-3 -3 -11 0 -18 7 -9 10 -8
11 6 5 10 -3 15 -9 12 -12z m-185 -8 c0 -8 -19 -13 -24 -6 -3 5 1 9 9 9 8 0
15 -2 15 -3z m45 -3 c3 -5 2 -12 -3 -15 -5 -3 -9 1 -9 9 0 17 3 19 12 6z
m-144 -28 c13 -16 12 -17 -3 -4 -10 7 -18 15 -18 17 0 8 8 3 21 -13z m166 -1
c-9 -10 -26 -18 -39 -19 -17 -2 -19 0 -8 7 8 5 17 7 21 4 4 -2 12 3 19 11 7 8
15 15 18 15 3 0 -2 -8 -11 -18z m-226 -19 c13 -17 13 -17 -6 -3 -11 8 -22 16
-24 17 -2 2 0 3 6 3 6 0 17 -8 24 -17z m120 0 c13 -16 12 -17 -3 -4 -10 7 -18
15 -18 17 0 8 8 3 21 -13z m2 -26 c4 3 7 4 7 0 0 -17 -20 -14 -36 6 -19 22
-19 22 2 4 11 -9 24 -14 27 -10z m-58 -7 c-1 -11 -4 -22 -7 -25 -4 -5 -4 34 1
43 4 8 7 -1 6 -18z m-81 -6 c3 -8 2 -12 -4 -9 -6 3 -10 10 -10 16 0 14 7 11
14 -7z m56 13 c0 -2 -10 -12 -22 -23 l-23 -19 19 23 c18 21 26 27 26 19z
m-130 -25 c0 -5 -7 -9 -15 -9 -8 0 -12 4 -9 9 3 4 9 8 15 8 5 0 9 -4 9 -8z
m73 -57 c-3 -9 -8 -14 -10 -11 -3 3 -2 9 2 15 9 16 15 13 8 -4z m-159 -11 c3
-8 2 -12 -4 -9 -6 3 -10 10 -10 16 0 14 7 11 14 -7z m86 1 c-5 -7 -9 -14 -7
-16 1 -2 0 -3 -2 -1 -11 7 -7 29 5 29 9 0 11 -4 4 -12z m44 7 c3 -5 -1 -9 -9
-9 -8 0 -12 4 -9 9 3 4 7 8 9 8 2 0 6 -4 9 -8z m-34 -76 c0 -2 -8 -10 -17 -17
-16 -13 -17 -12 -4 4 13 16 21 21 21 13z m24 -132 c3 -8 2 -12 -4 -9 -6 3 -10
10 -10 16 0 14 7 11 14 -7z m26 -94 c0 -5 -2 -10 -4 -10 -3 0 -8 5 -11 10 -3
6 -1 10 4 10 6 0 11 -4 11 -10z m-140 -34 c0 -2 -7 -7 -16 -10 -8 -3 -12 -2
-9 4 6 10 25 14 25 6z m15 -45 c3 -5 2 -12 -3 -15 -5 -3 -9 1 -9 9 0 17 3 19
12 6z m121 -26 c-1 -8 -5 -17 -8 -21 -5 -4 -4 16 1 34 3 9 9 -1 7 -13z m-121
-14 c-9 -8 -36 -10 -30 -2 2 4 11 8 20 8 8 0 13 -3 10 -6z m60 0 c-9 -8 -36
-10 -30 -2 2 4 11 8 20 8 8 0 13 -3 10 -6z m-34 -58 c13 -16 12 -17 -3 -4 -10
7 -18 15 -18 17 0 8 8 3 21 -13z m70 -36 c-10 -9 -11 -8 -5 6 3 10 9 15 12 12
3 -3 0 -11 -7 -18z m1809 -691 c9 -12 8 -15 -9 -13 -21 1 -26 8 -14 20 9 9 9
9 23 -7z"/>
<path d="M1491 2461 c-9 -16 -9 -27 0 -43 6 -13 8 -20 4 -16 -4 4 -15 -3 -25
-15 -17 -21 -17 -22 2 -35 15 -11 18 -21 13 -40 -6 -25 -5 -26 12 -11 10 9 23
15 28 13 6 -3 11 5 12 16 1 16 -1 18 -17 10 -13 -7 -19 -6 -23 4 -4 10 0 12
14 9 10 -3 19 0 19 6 0 6 5 11 11 11 5 0 8 -4 4 -9 -5 -9 45 -51 62 -51 4 0 1
5 -7 11 -13 9 -13 10 2 6 21 -7 68 29 68 51 0 13 -5 11 -23 -9 -15 -18 -31
-26 -51 -25 -27 1 -52 26 -26 26 6 0 8 -4 5 -10 -3 -5 -2 -10 3 -10 13 0 35
56 27 69 -3 6 -15 11 -26 11 -10 0 -19 3 -19 8 0 4 -9 13 -20 20 -23 14 -26 9
-6 -11 12 -11 11 -15 -3 -24 -14 -9 -20 -7 -31 11 -12 19 -12 20 4 7 22 -18
26 -12 10 18 l-12 23 -11 -21z m99 -53 c0 -5 0 -12 0 -18 0 -5 -5 -10 -11 -10
-8 0 -8 4 1 14 9 12 8 15 -9 13 -12 -1 -20 -6 -18 -12 3 -5 -6 -11 -19 -11
-13 -1 -24 3 -24 9 0 6 3 8 6 4 4 -3 12 0 20 7 13 14 54 16 54 4z m-90 -27 c0
-5 -7 -12 -16 -15 -14 -5 -15 -4 -4 9 14 17 20 19 20 6z"/>
<path d="M1612 2385 c-7 -15 -8 -26 -2 -30 16 -10 30 4 23 22 -4 11 -3 14 5 9
7 -4 12 -3 12 2 0 22 -28 19 -38 -3z"/>
<path d="M1668 2352 c-7 -11 -23 -24 -36 -31 -16 -9 -21 -18 -17 -31 4 -13 -1
-22 -15 -30 -11 -6 -20 -15 -20 -21 0 -5 14 0 30 13 20 14 28 28 25 39 -3 10
-2 20 3 22 10 7 13 -34 3 -48 -4 -5 -8 -19 -8 -31 -1 -16 5 -20 28 -20 28 0
36 6 22 19 -3 4 -13 1 -22 -6 -14 -11 -15 -10 -1 7 14 18 13 19 -3 13 -11 -4
-16 -3 -12 3 4 6 18 8 32 6 18 -4 23 -1 19 9 -3 8 -1 17 4 20 6 4 10 12 10 18
-1 7 -9 2 -19 -10 -25 -30 -27 -29 -26 10 1 20 6 31 15 29 8 -2 10 3 6 15 -5
16 -5 16 6 2 7 -9 18 -14 24 -12 7 2 19 -3 27 -12 17 -17 27 -19 27 -7 0 7
-74 52 -85 52 -2 0 -10 -8 -17 -18z"/>
<path d="M1673 2313 c0 -15 19 -12 24 3 2 6 -3 11 -10 11 -8 0 -14 -6 -14 -14z"/>
<path d="M1715 2311 c3 -11 1 -22 -5 -26 -6 -3 -8 -11 -5 -16 10 -15 23 -10
21 9 0 9 6 17 14 17 9 0 14 -7 12 -17 -2 -10 2 -18 8 -18 5 0 10 5 10 11 0 7
8 18 18 26 15 13 15 14 -9 9 -17 -4 -31 0 -39 9 -18 21 -32 19 -25 -4z"/>
<path d="M1794 2286 c-12 -9 -14 -15 -6 -20 7 -4 17 -4 22 -1 6 4 17 1 25 -5
12 -10 15 -10 15 1 1 9 4 8 11 -4 6 -10 15 -14 22 -10 7 4 5 -1 -3 -12 -14
-17 -13 -17 10 -11 17 5 20 4 12 -2 -11 -7 -10 -11 4 -16 9 -3 19 -4 22 -1 3
3 -1 5 -8 5 -7 0 -10 3 -7 6 10 10 36 -16 31 -30 -3 -7 2 -13 11 -13 8 0 15 3
15 6 0 13 -31 51 -41 51 -6 0 -17 7 -26 15 -8 8 -18 13 -23 10 -4 -3 -11 2
-14 11 -3 8 -10 12 -16 9 -5 -3 -10 -2 -10 3 0 17 -27 21 -46 8z"/>
<path d="M1590 2280 c0 -5 5 -10 10 -10 6 0 10 5 10 10 0 6 -4 10 -10 10 -5 0
-10 -4 -10 -10z"/>
<path d="M1730 2279 c0 -5 5 -7 10 -4 6 3 10 8 10 11 0 2 -4 4 -10 4 -5 0 -10
-5 -10 -11z"/>
<path d="M1714 2250 c-10 -4 -23 -5 -28 -3 -4 3 -1 -6 8 -19 9 -14 14 -32 11
-40 -3 -8 1 -21 10 -28 10 -8 15 -9 15 -1 0 6 -6 11 -12 11 -7 0 -5 5 5 11 19
11 52 -5 42 -21 -9 -14 14 -21 33 -11 14 8 24 6 38 -5 11 -9 14 -13 7 -10 -18
10 -25 -10 -8 -24 12 -10 16 -9 21 4 5 13 9 14 20 5 8 -6 11 -16 7 -23 -11
-17 -12 -37 -2 -30 6 3 15 1 22 -4 12 -10 18 -12 38 -12 5 0 8 -4 4 -10 -3 -5
8 -16 25 -25 16 -8 30 -12 30 -8 0 5 5 0 11 -10 8 -14 14 -15 24 -7 15 12 31
-3 21 -19 -4 -5 1 -8 11 -7 9 2 29 -11 45 -28 17 -17 27 -25 23 -18 -3 6 -2
12 4 12 5 0 11 -6 14 -12 3 -10 7 -10 20 1 15 11 24 3 15 -13 -5 -7 35 -46 42
-41 16 10 27 -23 25 -82 0 -34 2 -60 6 -57 4 2 9 -3 13 -11 3 -8 0 -14 -6 -12
-14 3 -19 -31 -6 -39 6 -4 5 -10 -3 -15 -10 -6 -11 -9 -1 -9 6 0 12 -5 12 -11
0 -5 -4 -8 -8 -5 -5 3 -9 -1 -9 -9 0 -11 4 -12 14 -3 11 8 12 7 7 -6 -3 -9 -1
-16 5 -16 6 0 10 3 10 8 -3 19 2 33 11 27 10 -6 -7 -55 -19 -53 -28 3 -33 -3
-15 -17 16 -13 16 -14 2 -9 -21 7 -24 -6 -6 -24 7 -7 8 -12 2 -12 -5 0 -10 -9
-11 -20 -1 -11 4 -20 10 -20 7 0 6 -4 -3 -10 -12 -8 -12 -10 -1 -10 11 0 11
-3 1 -15 -10 -12 -10 -18 0 -30 7 -8 8 -15 3 -15 -5 0 -9 -18 -9 -40 0 -23 3
-35 7 -28 5 7 7 -1 7 -20 -1 -17 -4 -30 -7 -28 -3 2 -7 -7 -8 -21 0 -16 2 -21
7 -14 5 9 9 8 14 -4 8 -23 8 -25 -6 -21 -7 1 -9 1 -5 -2 4 -2 2 -11 -5 -20
-12 -15 -11 -16 5 -3 11 9 17 10 17 2 0 -6 -7 -14 -15 -17 -14 -6 -14 -8 0
-18 14 -10 14 -14 2 -30 -12 -17 -12 -21 5 -38 19 -19 33 -24 23 -8 -3 6 -2
10 4 10 5 0 12 -5 14 -10 3 -6 4 -5 3 2 -2 7 -11 13 -21 13 -10 0 -20 5 -22
12 -3 8 4 11 17 8 60 -11 58 -59 -2 -60 -32 0 -49 -25 -20 -31 7 -1 8 0 2 3
-19 9 -10 21 15 21 26 0 33 -13 13 -22 -7 -3 -4 -4 7 -3 14 1 21 -5 23 -22 2
-13 0 -21 -5 -19 -4 3 -16 -3 -25 -14 -22 -22 -15 -23 17 -2 27 17 32 43 14
61 -6 6 -8 16 -5 22 11 17 22 13 22 -6 1 -10 4 -26 9 -35 5 -13 -2 -26 -24
-47 -17 -16 -31 -34 -31 -40 0 -12 42 -55 75 -77 13 -9 22 -21 19 -28 -3 -7 3
-19 13 -26 15 -12 16 -12 6 0 -15 16 -17 34 -4 25 5 -3 13 0 17 6 4 7 3 9 -3
6 -13 -8 -113 83 -113 102 0 8 3 11 7 8 3 -4 12 2 20 13 13 18 16 19 37 5 25
-17 60 -10 49 9 -12 19 -13 46 -2 46 5 0 7 5 3 11 -5 8 -10 6 -16 -5 -5 -9 -6
-21 -2 -28 5 -8 2 -9 -9 -5 -10 3 -17 2 -17 -3 0 -6 7 -10 15 -10 8 0 15 -4
15 -10 0 -12 -6 -13 -28 -1 -15 8 -20 54 -13 114 1 4 15 16 32 26 19 12 26 21
19 26 -6 4 -8 15 -5 25 3 10 -1 25 -10 33 -16 17 -21 32 -6 23 5 -3 11 0 14 7
6 16 -6 39 -19 37 -5 -1 -10 3 -12 8 -2 6 5 9 15 8 16 -1 18 9 18 112 -1 61 3
112 8 112 6 0 6 5 0 13 -10 14 -10 67 0 83 3 6 3 14 -1 18 -10 11 -10 56 1 56
5 0 -1 9 -14 20 -21 18 -21 20 -5 18 11 -2 20 4 21 15 2 9 0 17 -4 17 -7 0 -7
45 -1 60 1 3 1 10 0 15 -8 38 -8 45 1 50 5 4 5 13 -1 24 -5 10 -6 21 -3 25 4
4 8 14 9 22 1 9 0 14 -2 11 -3 -3 -16 6 -30 20 -13 13 -28 22 -33 18 -5 -3
-11 0 -13 6 -3 9 -11 8 -28 -2 -33 -17 -52 -20 -43 -6 4 7 1 7 -9 -1 -13 -10
-18 -10 -24 -1 -5 8 -3 9 6 4 9 -6 11 -4 5 5 -5 8 -4 11 2 7 6 -4 10 1 9 10 0
9 5 17 12 19 7 1 8 0 2 -3 -15 -7 -12 -20 5 -20 20 0 19 24 -1 35 -20 11 -76
-17 -70 -34 3 -6 -1 -17 -7 -24 -9 -10 -9 -11 3 -5 12 7 13 6 2 -6 -11 -12
-14 -12 -21 0 -7 11 -9 11 -14 0 -4 -11 -6 -11 -6 0 -1 11 -5 10 -15 -4 -11
-15 -17 -17 -28 -7 -8 6 -18 9 -21 5 -4 -3 -7 -1 -7 5 0 15 17 16 25 2 8 -13
25 -13 25 1 0 5 -4 8 -9 4 -5 -3 -13 0 -17 6 -5 8 -3 9 6 4 9 -5 11 -4 6 4 -4
6 -13 10 -19 9 -7 -1 -22 4 -35 11 -23 12 -23 13 -6 32 9 10 12 19 7 19 -16 0
-36 -28 -28 -39 3 -7 0 -8 -9 -5 -9 3 -14 11 -13 16 1 6 -5 13 -13 15 -12 4
-12 3 -1 -5 9 -7 10 -12 2 -16 -6 -4 -11 -3 -11 2 0 5 -8 9 -17 9 -42 0 -45 3
-22 23 13 10 19 19 12 20 -6 0 -15 -5 -18 -10 -4 -7 -12 -7 -24 0 -10 5 -22 6
-26 2 -5 -4 -5 -1 0 7 5 9 4 12 -3 7 -7 -4 -10 1 -7 14 2 11 0 20 -6 20 -5 0
-8 5 -6 11 1 6 -7 13 -17 15 -10 1 -26 10 -35 19 -12 12 -12 16 -2 13 7 -2 16
3 19 11 3 9 0 11 -7 7 -7 -4 -19 -2 -28 6 -15 11 -16 11 -10 -4 8 -22 -8 -32
-30 -19 -10 6 -13 11 -6 11 7 0 10 6 7 14 -7 19 14 30 31 16 11 -9 14 -7 12 9
-1 16 -6 20 -22 15 -19 -7 -42 -8 -75 -5 -13 1 -13 3 -1 10 9 6 22 6 33 0 10
-5 18 -6 18 -1 0 4 12 8 28 7 15 0 26 -6 25 -12 -2 -7 6 -15 17 -18 11 -4 18
-11 15 -16 -4 -5 1 -9 9 -9 23 0 19 18 -5 25 -17 6 -19 9 -8 16 8 5 11 9 7 10
-16 3 -28 7 -30 9 -7 6 -106 6 -124 0z m21 -39 c3 -5 0 -13 -6 -17 -7 -4 -9
-3 -5 4 3 5 0 13 -6 15 -9 4 -10 6 -1 6 6 1 14 -3 18 -8z m32 -16 c0 -8 -4
-12 -9 -9 -4 3 -8 9 -8 15 0 5 4 9 8 9 5 0 9 -7 9 -15z m484 -194 c-16 -22
-18 -31 -8 -38 16 -12 47 -10 74 5 18 10 24 9 32 -5 8 -14 10 -15 11 -3 0 12
2 12 9 2 4 -8 11 -13 15 -13 3 1 5 -1 4 -4 -2 -2 5 -10 15 -17 17 -13 16 -15
-13 -37 -35 -25 -51 -21 -29 7 8 10 1 4 -15 -12 -27 -29 -28 -22 -2 15 6 8 -2
1 -17 -15 -18 -21 -26 -24 -21 -12 7 19 7 19 -12 0 -11 -10 -17 -21 -12 -24 4
-3 6 -16 3 -28 -3 -15 0 -21 8 -17 7 4 3 -1 -7 -9 -11 -9 -14 -16 -8 -16 14 0
12 -21 -3 -33 -6 -5 -2 -6 8 -3 13 4 16 2 11 -7 -6 -8 -3 -8 9 1 9 8 21 11 26
8 5 -4 15 2 21 11 11 16 11 16 5 -2 -3 -11 -3 -16 1 -12 4 4 13 2 21 -4 9 -9
13 -8 13 0 0 6 5 11 12 11 6 0 8 -3 5 -6 -3 -4 -2 -15 4 -25 7 -14 6 -17 -5
-13 -21 8 -29 -12 -11 -29 13 -13 13 -16 -1 -21 -10 -4 -13 -2 -8 6 5 7 3 8
-6 3 -9 -5 -11 -4 -6 4 4 7 -2 15 -16 20 -13 6 -20 11 -15 12 4 1 12 3 17 4 6
1 15 3 21 4 5 0 7 6 3 12 -4 8 -9 7 -16 -2 -8 -11 -9 -11 -5 2 5 15 -10 17
-54 10 -3 -1 -6 -8 -6 -16 0 -8 4 -12 8 -9 4 2 10 0 14 -6 3 -5 3 -10 -2 -11
-24 -2 -46 -8 -51 -15 -4 -4 1 -4 10 -1 12 4 15 2 12 -7 -3 -8 0 -17 7 -22 9
-5 10 -2 6 9 -3 9 -1 19 5 23 7 5 8 2 4 -7 -4 -8 -1 -6 7 4 13 15 15 15 20 2
4 -8 1 -14 -5 -12 -7 1 -12 -18 -14 -53 -2 -67 -3 -70 -13 -45 -5 11 -5 28 0
37 9 17 -4 33 -26 33 -5 0 -11 6 -11 13 -1 6 -2 13 -4 15 -1 1 -3 10 -5 19 -2
11 2 15 10 11 9 -3 13 2 12 16 -1 11 -6 22 -12 25 -7 2 -11 27 -10 60 1 43 -3
60 -17 73 -10 9 -18 13 -18 8 0 -4 -6 -2 -14 4 -8 7 -13 21 -11 31 4 20 -20
35 -30 19 -4 -5 -11 -7 -16 -3 -17 10 1 23 26 18 25 -4 40 9 40 38 0 9 9 24
20 32 28 22 29 20 6 -13z m-151 -25 c0 -10 -30 0 -34 11 -4 11 -1 11 14 3 11
-6 20 -12 20 -14z m313 -101 c4 -8 2 -17 -3 -20 -8 -5 -8 -21 2 -52 1 -6 -6
-19 -17 -27 l-20 -16 20 6 c19 5 19 5 1 -7 -15 -9 -20 -9 -28 4 -5 9 -15 14
-23 11 -8 -4 -13 -9 -10 -13 2 -4 -5 -7 -17 -6 -22 2 -34 30 -17 41 5 3 6 11
2 17 -14 23 -10 45 9 42 9 -2 20 0 23 5 3 5 12 7 19 4 7 -3 19 2 26 11 16 19
26 19 33 0z m-71 -154 c8 11 9 11 6 1 -4 -16 -22 -18 -24 -2 -2 7 -1 6 3 -1 4
-8 8 -7 15 2z m33 -71 c3 -5 13 -6 22 -3 13 5 15 2 10 -12 -4 -9 -3 -23 3 -30
7 -8 7 -15 1 -19 -5 -3 -7 -16 -3 -28 3 -14 1 -19 -6 -14 -6 3 -9 16 -7 27 3
15 0 19 -11 15 -12 -5 -12 -1 1 25 16 30 16 30 -4 19 -18 -9 -20 -8 -15 7 3
10 -2 6 -11 -10 -19 -33 -5 -70 22 -60 10 4 14 2 10 -4 -4 -6 -2 -17 5 -25 20
-20 23 -52 4 -45 -8 3 -18 2 -21 -4 -7 -10 -25 -3 -25 11 0 4 11 7 25 5 24 -2
25 -1 11 19 -8 11 -19 20 -25 19 -6 -2 -11 3 -11 10 0 7 -7 4 -15 -7 -8 -11
-15 -15 -15 -9 0 7 4 14 8 17 4 2 8 27 7 53 -1 40 2 49 17 50 10 1 20 -2 23
-7z m-1 -45 c-7 -16 -24 -21 -24 -6 0 8 7 13 27 20 1 1 0 -6 -3 -14z m-65 -63
c8 -16 15 -21 24 -15 14 11 37 11 37 1 0 -5 -3 -8 -7 -9 -5 -1 -16 -5 -26 -10
-13 -7 -19 -6 -23 6 -3 8 -11 12 -16 9 -7 -4 -7 -9 0 -13 7 -4 5 -13 -4 -26
-11 -15 -17 -16 -26 -7 -8 8 -9 12 -1 12 12 0 12 18 -1 38 -4 7 -4 12 1 11 19
-3 25 2 14 14 -8 10 -7 14 3 14 8 0 19 -11 25 -25z m41 -62 c7 -11 11 -11 24
-1 12 10 16 10 16 2 0 -7 5 -9 13 -5 8 5 8 2 -2 -9 -11 -13 -11 -17 -1 -17 8
0 11 -2 8 -5 -7 -8 -39 6 -34 14 3 4 -4 7 -14 7 -10 0 -17 -4 -14 -8 2 -4 -5
-6 -16 -5 -11 1 -20 5 -20 10 0 4 -5 5 -11 1 -6 -3 -7 -9 -3 -13 20 -14 14
-32 -8 -27 -13 3 -17 3 -10 0 6 -3 10 -10 7 -15 -4 -5 1 -6 10 -2 15 5 15 3 4
-15 -7 -11 -17 -18 -21 -16 -5 3 -6 9 -4 13 3 4 1 13 -4 21 -5 9 -5 19 2 27 6
7 8 13 5 13 -3 0 4 11 16 24 23 25 44 28 57 6z m-25 -40 c-8 -13 8 -13 21 0 7
7 19 6 37 -2 29 -14 33 -23 15 -34 -7 -5 -8 -3 -3 7 5 8 1 7 -11 -3 -18 -16
-22 -16 -41 -3 -19 13 -21 13 -18 -3 1 -10 9 -16 19 -14 14 3 15 0 4 -17 -9
-15 -14 -17 -20 -8 -6 9 -8 8 -9 -3 0 -10 -3 -8 -8 5 -5 11 -6 25 -2 30 3 6 6
18 7 28 2 24 3 27 10 27 3 0 2 -4 -1 -10z m61 -96 c0 -31 3 -58 8 -62 5 -3 6
1 1 8 -5 9 -4 11 3 6 16 -10 15 -29 0 -23 -7 2 -23 0 -36 -4 -14 -6 -30 -5
-40 1 -14 8 -14 10 -2 9 8 -1 24 -1 35 1 l20 1 -20 8 c-11 5 -27 6 -35 3 -12
-5 -13 -3 -2 10 7 8 9 24 5 33 -4 11 -2 16 4 12 5 -3 20 7 32 23 12 17 23 30
25 30 2 0 3 -25 2 -56z m21 26 c1 -11 -2 -22 -6 -24 -6 -4 -7 26 -2 42 3 8 7
-1 8 -18z m-97 -29 c10 -21 9 -27 -6 -38 -10 -7 -13 -13 -8 -13 13 0 14 -31 2
-47 -7 -8 -3 -16 11 -25 12 -7 21 -16 21 -21 0 -4 -4 -5 -10 -2 -9 5 -12 -1
-9 -21 1 -10 -24 -23 -34 -17 -4 2 -4 10 2 17 10 12 8 49 -4 77 -3 10 -1 20 5
24 9 6 9 10 -1 16 -11 7 -11 9 -1 9 9 0 10 5 3 19 -6 10 -7 21 -4 25 3 3 1 6
-5 6 -7 0 -12 4 -12 9 0 20 39 6 50 -18z m16 -96 c-3 -9 3 -19 14 -25 18 -10
19 -13 5 -34 -9 -14 -13 -31 -8 -42 6 -17 5 -17 -10 -6 -19 16 -18 32 3 49 13
11 12 15 -8 31 -18 14 -20 20 -10 30 16 16 21 15 14 -3z m59 -3 c21 -17 21
-19 7 -29 -16 -10 -15 -12 2 -32 19 -21 19 -22 1 -39 -17 -16 -18 -16 -12 1 9
26 -2 47 -21 39 -15 -5 -15 -3 -4 11 12 13 11 18 -7 29 -15 9 -17 15 -9 25 14
17 15 16 43 -5z m-5 -82 c0 -5 -9 -10 -20 -10 -11 0 -20 5 -20 10 0 6 9 10 20
10 11 0 20 -4 20 -10z m-58 -29 c11 -18 13 -18 25 -3 12 16 14 16 27 -1 10
-13 15 -15 19 -5 2 7 8 10 12 6 24 -23 -61 -33 -87 -11 -9 8 -22 12 -27 8 -12
-7 -15 8 -4 18 11 12 22 8 35 -12z m44 -47 c-3 -9 -6 -18 -6 -20 0 -3 -4 -3
-10 1 -11 7 -2 35 12 35 6 0 7 -7 4 -16z"/>
<path d="M2330 1962 c0 -7 -4 -11 -9 -7 -5 3 -12 1 -15 -3 -6 -10 -46 -10 -62
1 -7 4 -16 1 -21 -6 -10 -13 -12 -58 -2 -54 4 1 16 -6 27 -16 19 -18 21 -18
41 4 12 13 21 19 21 14 0 -5 10 0 23 11 19 18 27 20 54 15 3 0 -2 -11 -13 -23
l-19 -22 27 20 c21 15 23 21 12 27 -8 5 -12 12 -9 17 3 5 -4 7 -15 5 -11 -2
-24 3 -30 13 -6 11 -10 12 -10 4z m-52 -26 c12 1 23 2 25 4 1 1 10 3 19 5 27
5 30 -10 8 -30 -11 -10 -20 -14 -20 -10 0 5 -11 -1 -23 -14 -21 -19 -25 -20
-37 -6 -7 8 -16 13 -20 10 -4 -2 -6 8 -4 23 3 36 2 36 17 25 6 -5 22 -8 35 -7z"/>
<path d="M2234 1927 c1 -8 8 -22 15 -31 13 -15 16 -15 36 4 12 11 24 18 27 15
3 -3 11 1 17 9 10 12 9 14 -6 11 -10 -2 -19 -4 -20 -5 -9 -7 -50 -5 -60 2 -7
6 -11 4 -9 -5z m44 -24 c-8 -10 -14 -10 -24 -2 -18 15 -18 15 11 15 19 0 22
-3 13 -13z"/>
<path d="M2380 1864 c-7 -8 -19 -13 -26 -10 -7 3 -16 1 -19 -5 -4 -5 -12 -6
-18 -2 -7 4 -5 -2 3 -12 14 -17 13 -18 -5 -12 -19 7 -19 6 -2 -7 12 -9 14 -15
6 -18 -7 -2 -13 -12 -15 -21 -2 -14 1 -15 17 -7 10 6 18 14 18 18 -3 21 3 22
19 3 15 -18 19 -19 36 -6 11 8 15 15 9 15 -11 0 -11 39 0 57 11 18 -9 25 -23
7z m11 -7 c-6 -8 -8 -17 -4 -20 3 -4 0 -7 -8 -7 -11 0 -11 -2 1 -10 10 -6 11
-10 3 -10 -7 0 -13 -5 -13 -11 0 -5 5 -7 12 -3 7 5 8 3 3 -6 -6 -10 -11 -9
-22 6 -8 10 -18 18 -23 17 -7 -2 -7 5 -1 36 1 2 7 -1 14 -7 10 -8 16 -6 25 9
7 10 15 19 18 19 4 0 1 -6 -5 -13z"/>
<path d="M2340 1836 c0 -2 8 -10 18 -17 15 -13 16 -12 3 4 -13 16 -21 21 -21
13z"/>
<path d="M2310 1478 c0 -4 4 -8 9 -8 6 0 12 4 15 8 3 5 -1 9 -9 9 -8 0 -15 -4
-15 -9z"/>
<path d="M2345 1431 c-7 -12 12 -24 25 -16 11 7 4 25 -10 25 -5 0 -11 -4 -15
-9z"/>
<path d="M2351 1343 c-14 -31 0 -56 21 -35 9 9 9 15 1 23 -6 6 -9 18 -6 25 9
25 -4 15 -16 -13z m19 -23 c0 -5 -4 -10 -10 -10 -5 0 -10 5 -10 10 0 6 5 10
10 10 6 0 10 -4 10 -10z"/>
<path d="M2293 1331 c0 -11 5 -18 9 -15 4 3 5 11 1 19 -7 21 -12 19 -10 -4z"/>
<path d="M2350 1241 c0 -9 30 -24 36 -18 2 1 -6 8 -16 15 -11 7 -20 8 -20 3z"/>
<path d="M1790 2199 c0 -5 5 -7 10 -4 6 3 10 8 10 11 0 2 -4 4 -10 4 -5 0 -10
-5 -10 -11z"/>
<path d="M1835 2200 c-3 -5 -1 -10 4 -10 6 0 11 5 11 10 0 6 -2 10 -4 10 -3 0
-8 -4 -11 -10z"/>
<path d="M1972 2190 c2 -19 -2 -24 -17 -24 -12 -1 -20 6 -19 15 2 22 -32 18
-64 -9 -15 -13 -21 -21 -14 -17 6 3 12 1 12 -4 0 -6 3 -10 8 -9 18 4 40 -15
37 -33 -2 -11 5 -25 18 -34 18 -13 23 -13 37 0 9 8 19 15 22 15 10 0 3 -27
-10 -43 -11 -12 -11 -15 0 -13 7 1 19 5 26 10 8 5 18 4 25 -3 8 -8 16 -6 29 6
17 15 20 15 40 -3 21 -19 21 -19 14 1 -5 11 -9 26 -9 33 0 6 -5 12 -10 12 -5
0 -6 -7 -3 -16 5 -14 4 -15 -8 -5 -11 9 -15 8 -20 -6 -6 -15 -9 -15 -16 -3 -5
8 -6 18 -4 22 3 4 -2 8 -11 8 -9 0 -14 -4 -10 -9 3 -5 1 -12 -4 -15 -5 -4 -13
-1 -17 5 -4 7 -3 9 3 6 5 -3 10 0 10 8 0 8 -5 13 -11 12 -5 -1 -10 3 -11 10 0
17 -15 28 -16 12 -1 -8 -1 -17 0 -21 0 -5 -5 -7 -11 -5 -7 1 -12 -4 -10 -11 1
-8 -2 -11 -8 -7 -6 3 -8 11 -5 16 4 5 -1 12 -11 16 -15 5 -15 8 -2 17 8 6 16
14 16 19 1 4 5 6 10 5 4 -2 6 -7 4 -11 -1 -5 3 -7 10 -4 7 2 12 13 10 23 -2
16 -1 17 7 4 10 -13 11 -13 11 0 0 12 2 13 9 1 5 -8 14 -10 22 -5 9 5 8 -1 -3
-18 -15 -23 -15 -27 -2 -32 8 -3 12 -2 9 3 -3 5 -1 12 5 16 6 4 7 12 3 18 -3
7 2 4 13 -5 10 -9 24 -17 29 -18 6 -1 9 -7 7 -13 -2 -7 -1 -9 3 -5 4 4 17 -2
28 -13 12 -11 23 -15 25 -9 2 5 8 10 14 10 6 0 3 -10 -8 -22 -19 -22 -19 -23
1 -8 16 11 18 11 8 0 -16 -17 -17 -30 -2 -30 5 0 8 4 4 9 -3 5 -1 12 4 15 5 4
12 2 16 -4 4 -6 10 -8 15 -5 5 3 11 1 15 -4 3 -6 -3 -8 -14 -6 -15 3 -19 -1
-16 -16 2 -10 7 -25 10 -32 4 -6 1 -5 -7 4 -7 9 -20 14 -28 12 -13 -4 -13 -3
0 7 13 10 12 11 -3 6 -13 -4 -16 -2 -11 7 5 7 1 6 -10 -3 -16 -12 -19 -12 -28
4 -8 13 -13 15 -24 5 -12 -10 -12 -13 3 -24 10 -7 21 -11 26 -8 5 3 18 -3 29
-14 12 -10 18 -12 14 -5 -4 6 -2 12 3 12 6 0 11 -4 11 -9 0 -5 8 -8 17 -7 10
2 18 11 18 22 0 10 10 23 23 29 31 14 29 29 -5 24 -3 0 -10 6 -15 15 -5 8 -15
13 -24 9 -9 -3 -14 0 -12 8 2 8 -4 14 -12 14 -8 0 -20 7 -27 15 -7 8 -13 11
-13 7 0 -5 -7 -1 -16 7 -8 9 -22 16 -30 16 -8 0 -12 5 -9 10 4 6 3 10 -2 9
-13 -3 -47 14 -60 30 -7 9 -13 12 -13 6 0 -5 -5 -3 -10 5 -8 12 -10 10 -8 -10z
m-45 -43 c0 -16 -2 -16 -18 -1 -10 9 -15 22 -12 30 7 18 30 -4 30 -29z"/>
<path d="M1996 2141 c-4 -5 -2 -12 3 -15 5 -4 12 -2 15 3 4 5 2 12 -3 15 -5 4
-12 2 -15 -3z"/>
<path d="M1946 2121 c-4 -5 -2 -12 3 -15 5 -4 12 -2 15 3 4 5 2 12 -3 15 -5 4
-12 2 -15 -3z"/>
<path d="M2047 2124 c-3 -4 -2 -14 3 -24 5 -10 6 -21 2 -25 -4 -4 2 -2 14 5
11 7 21 19 21 26 0 8 -3 12 -5 9 -3 -3 -10 0 -17 5 -7 5 -15 7 -18 4z"/>
<path d="M2116 2073 c6 -4 10 -18 9 -30 -1 -12 2 -20 7 -17 12 8 3 48 -13 52
-9 2 -10 1 -3 -5z"/>
<path d="M2306 1994 c-3 -8 -11 -12 -17 -8 -8 4 -9 3 -5 -4 5 -9 12 -8 26 1
21 12 26 27 11 27 -5 0 -12 -7 -15 -16z"/>
<path d="M2250 1080 c0 -5 5 -10 11 -10 5 0 7 5 4 10 -3 6 -8 10 -11 10 -2 0
-4 -4 -4 -10z"/>
<path d="M2400 1080 c-8 -5 -15 -23 -16 -39 l-2 -31 18 23 c9 12 17 30 17 40
0 9 -1 17 -1 17 -1 0 -8 -5 -16 -10z m10 -20 c0 -5 -4 -10 -10 -10 -5 0 -10 5
-10 10 0 6 5 10 10 10 6 0 10 -4 10 -10z"/>
<path d="M2250 1000 c0 -5 5 -10 10 -10 6 0 10 5 10 10 0 6 -4 10 -10 10 -5 0
-10 -4 -10 -10z"/>
<path d="M2346 935 c-7 -19 3 -47 15 -39 5 3 9 -3 10 -13 0 -13 2 -14 6 -4 3
8 -2 20 -12 28 -10 7 -15 16 -11 20 4 5 16 -3 27 -16 11 -14 19 -18 19 -10 0
11 2 11 10 -1 7 -12 9 -10 7 7 -1 17 -4 19 -14 11 -7 -6 -13 -6 -13 -2 0 5 -9
15 -19 21 -15 10 -20 9 -25 -2z"/>
<path d="M2270 929 c0 -5 5 -7 10 -4 6 3 10 8 10 11 0 2 -4 4 -10 4 -5 0 -10
-5 -10 -11z"/>
<path d="M2263 895 c-3 -9 -3 -19 1 -22 3 -4 6 2 6 12 0 15 2 17 13 6 10 -10
8 -16 -10 -31 -18 -14 -20 -19 -8 -24 8 -3 23 -2 33 1 15 6 15 5 3 -10 -9 -11
-10 -17 -2 -17 6 0 11 4 11 10 0 5 6 7 14 4 30 -11 24 16 -10 50 -41 41 -42
42 -51 21z m62 -45 c10 -11 13 -20 7 -20 -6 0 -14 5 -17 10 -4 6 -16 8 -28 4
-19 -6 -20 -5 -8 10 17 21 24 20 46 -4z"/>
<path d="M2390 872 c0 -5 6 -15 14 -21 12 -10 14 -9 12 5 -3 19 -26 33 -26 16z"/>
<path d="M2355 819 c-11 -16 -1 -19 13 -3 7 8 8 14 3 14 -5 0 -13 -5 -16 -11z"/>
<path d="M2330 802 c0 -6 -8 -9 -17 -6 -11 4 -14 2 -8 -3 16 -13 16 -33 0 -39
-8 -4 -15 -11 -15 -16 0 -6 8 -4 17 3 15 12 16 12 10 -4 -4 -11 -3 -16 3 -12
6 3 10 -1 10 -9 0 -9 -6 -15 -12 -13 -7 1 -13 -4 -13 -12 0 -8 6 -15 13 -17 7
-1 8 0 2 3 -5 2 -10 9 -10 14 0 6 5 7 10 4 16 -10 23 21 10 45 -10 20 -10 21
8 16 24 -8 35 4 20 24 -8 12 -9 11 -4 -4 5 -14 2 -17 -10 -12 -8 3 -18 6 -21
6 -3 0 0 7 7 15 7 9 10 18 6 22 -3 3 -6 1 -6 -5z"/>
<path d="M2370 800 c0 -18 19 -40 35 -40 7 0 6 3 -1 8 -6 4 -16 16 -22 27 -8
15 -11 16 -12 5z"/>
<path d="M2360 740 c-13 -8 -13 -10 2 -10 9 0 20 5 23 10 8 13 -5 13 -25 0z"/>
<path d="M2390 718 c0 -4 7 -8 15 -8 8 0 15 4 15 8 0 5 -7 9 -15 9 -8 0 -15
-4 -15 -9z"/>
<path d="M2272 711 c-11 -7 -10 -9 3 -14 9 -4 14 -3 10 2 -3 5 1 12 7 14 7 3
9 6 3 6 -5 0 -16 -3 -23 -8z"/>
<path d="M2354 709 c-4 -7 -3 -9 4 -5 5 3 12 0 15 -6 2 -7 7 -10 11 -7 4 3 0
12 -8 18 -11 9 -16 9 -22 0z"/>
<path d="M2160 680 c0 -5 5 -10 10 -10 6 0 10 5 10 10 0 6 -4 10 -10 10 -5 0
-10 -4 -10 -10z"/>
<path d="M2266 677 c3 -10 9 -15 12 -12 3 3 0 11 -7 18 -10 9 -11 8 -5 -6z"/>
<path d="M2352 676 c7 -8 15 -12 17 -11 5 6 -10 25 -20 25 -5 0 -4 -6 3 -14z"/>
<path d="M2400 686 c0 -2 7 -7 16 -10 8 -3 12 -2 9 4 -6 10 -25 14 -25 6z"/>
<path d="M2181 651 c-6 -10 -7 -21 -4 -25 4 -3 -4 -5 -16 -4 -16 2 -25 -3 -26
-14 -2 -10 1 -18 7 -18 6 0 8 7 4 15 -3 10 0 14 12 12 9 -1 19 3 20 8 2 6 8
18 13 28 5 9 7 17 5 17 -3 0 -10 -8 -15 -19z"/>
<path d="M2290 661 c0 -5 7 -12 16 -15 14 -5 15 -4 4 9 -14 17 -20 19 -20 6z"/>
<path d="M2334 658 c-7 -11 22 -39 40 -37 6 0 5 3 -2 6 -6 2 -10 9 -7 14 4 5
-1 6 -10 3 -11 -5 -14 -2 -9 10 7 18 -1 22 -12 4z"/>
<path d="M2390 660 c-13 -8 -12 -10 3 -10 9 0 17 5 17 10 0 12 -1 12 -20 0z"/>
<path d="M2201 634 c0 -11 3 -14 6 -6 3 7 2 16 -1 19 -3 4 -6 -2 -5 -13z"/>
<path d="M2240 640 c-8 -5 -12 -11 -10 -14 3 -2 14 2 24 10 22 15 10 19 -14 4z"/>
<path d="M2108 633 c7 -3 16 -2 19 1 4 3 -2 6 -13 5 -11 0 -14 -3 -6 -6z"/>
<path d="M2264 625 c-10 -8 -14 -14 -9 -14 6 0 19 6 29 14 11 8 15 15 10 15
-6 0 -19 -7 -30 -15z"/>
<path d="M2076 615 c-9 -26 -7 -32 5 -12 6 10 9 21 6 23 -2 3 -7 -2 -11 -11z"/>
<path d="M2310 620 c0 -5 5 -10 10 -10 6 0 10 5 10 10 0 6 -4 10 -10 10 -5 0
-10 -4 -10 -10z"/>
<path d="M2095 599 c-9 -14 0 -22 28 -26 17 -2 19 -1 7 6 -8 5 -18 7 -22 5 -4
-3 -8 -1 -8 5 0 5 6 12 13 14 9 4 9 6 0 6 -6 1 -15 -4 -18 -10z"/>
<path d="M2210 600 c0 -5 5 -10 10 -10 6 0 10 5 10 10 0 6 -4 10 -10 10 -5 0
-10 -4 -10 -10z"/>
<path d="M2286 595 c4 -8 8 -15 10 -15 2 0 4 7 4 15 0 8 -4 15 -10 15 -5 0 -7
-7 -4 -15z"/>
<path d="M1975 581 c-3 -5 0 -13 6 -17 7 -4 9 -3 5 4 -3 5 0 13 6 15 9 4 10 6
1 6 -6 1 -14 -3 -18 -8z"/>
<path d="M2155 581 c-3 -6 0 -9 7 -6 9 4 14 -2 15 -15 1 -11 -3 -19 -9 -17 -6
1 -13 -5 -15 -13 -4 -12 -3 -12 5 -2 5 8 13 13 18 13 13 -1 11 42 -3 46 -6 2
-14 -1 -18 -6z"/>
<path d="M2062 560 c0 -14 2 -19 5 -12 2 6 2 18 0 25 -3 6 -5 1 -5 -13z"/>
<path d="M2201 564 c0 -11 3 -14 6 -6 3 7 2 16 -1 19 -3 4 -6 -2 -5 -13z"/>
<path d="M2230 570 c0 -6 7 -10 15 -10 8 0 15 2 15 4 0 2 -7 6 -15 10 -8 3
-15 1 -15 -4z"/>
<path d="M1953 555 c0 -8 4 -12 9 -9 5 3 6 10 3 15 -9 13 -12 11 -12 -6z"/>
<path d="M1918 553 c7 -3 16 -2 19 1 4 3 -2 6 -13 5 -11 0 -14 -3 -6 -6z"/>
<path d="M1890 540 c0 -5 5 -10 11 -10 5 0 7 5 4 10 -3 6 -8 10 -11 10 -2 0
-4 -4 -4 -10z"/>
<path d="M1975 540 c-3 -5 -1 -18 5 -27 9 -15 10 -14 4 6 -4 17 -3 21 6 16 9
-5 11 -4 6 3 -9 15 -13 15 -21 2z"/>
<path d="M2015 541 c-3 -5 0 -13 6 -17 8 -5 9 -3 4 6 -6 10 -4 12 8 7 10 -3
17 -2 17 3 0 13 -27 13 -35 1z"/>
<path d="M2077 537 c-3 -8 -2 -20 3 -26 5 -9 8 -4 8 13 0 29 -3 32 -11 13z"/>
<path d="M2113 532 c-7 -4 -9 -13 -4 -21 6 -9 10 -7 14 8 3 12 4 21 4 21 -1 0
-7 -4 -14 -8z"/>
<path d="M1917 513 c-12 -11 -8 -23 7 -23 8 0 18 4 21 10 4 6 -1 7 -11 3 -12
-4 -15 -3 -10 5 8 13 3 16 -7 5z"/>
<path d="M1835 501 c-9 -15 15 -25 28 -12 9 9 7 10 -7 5 -13 -5 -17 -4 -12 4
4 7 5 12 2 12 -3 0 -7 -4 -11 -9z"/>
<path d="M1956 494 c-3 -9 -2 -22 2 -31 6 -10 9 -5 9 16 0 35 -2 38 -11 15z"/>
<path d="M1989 483 c-13 -16 -12 -17 4 -4 9 7 17 15 17 17 0 8 -8 3 -21 -13z"/>
<path d="M1884 479 c-3 -6 -1 -16 5 -22 9 -9 10 -7 5 7 -6 15 -4 17 6 11 9 -5
11 -4 6 3 -9 15 -13 15 -22 1z"/>
<path d="M2050 480 c0 -5 5 -10 10 -10 6 0 10 5 10 10 0 6 -4 10 -10 10 -5 0
-10 -4 -10 -10z"/>
<path d="M1776 471 c-4 -5 3 -7 14 -4 23 6 26 13 6 13 -8 0 -17 -4 -20 -9z"/>
<path d="M2075 460 c-3 -6 1 -7 9 -4 18 7 21 14 7 14 -6 0 -13 -4 -16 -10z"/>
<path d="M1977 441 c-3 -12 0 -24 5 -28 6 -3 8 -1 4 5 -3 5 -2 12 4 14 5 2 6
9 1 16 -6 10 -10 9 -14 -7z"/>
<path d="M1750 438 c0 -4 4 -8 9 -8 6 0 12 4 15 8 3 5 -1 9 -9 9 -8 0 -15 -4
-15 -9z"/>
<path d="M1836 434 c-24 -24 -19 -30 7 -8 12 10 24 20 26 21 2 2 -1 3 -7 3 -6
0 -18 -7 -26 -16z"/>
<path d="M1900 440 c-8 -5 -10 -10 -5 -10 6 0 17 5 25 10 8 5 11 10 5 10 -5 0
-17 -5 -25 -10z"/>
<path d="M2025 440 c3 -5 8 -10 11 -10 2 0 4 5 4 10 0 6 -5 10 -11 10 -5 0 -7
-4 -4 -10z"/>
<path d="M1867 409 c4 -13 8 -18 11 -10 2 7 -1 18 -6 23 -8 8 -9 4 -5 -13z"/>
<path d="M1736 411 c-3 -5 -19 -7 -36 -6 -16 1 -27 -1 -25 -5 3 -5 13 -7 23
-5 9 1 24 -1 32 -6 12 -5 16 -2 16 12 0 21 -2 23 -10 10z"/>
<path d="M1774 399 c0 -12 4 -15 12 -9 6 6 14 7 17 3 4 -3 7 -2 7 4 0 6 -8 13
-18 15 -12 4 -18 -1 -18 -13z"/>
<path d="M1925 402 c-15 -11 -16 -29 0 -29 7 0 11 7 7 15 -4 11 -1 13 8 7 9
-5 11 -4 6 3 -8 14 -8 14 -21 4z"/>
<path d="M1839 388 c-8 -26 -5 -36 9 -31 8 4 13 2 9 -3 -3 -5 2 -10 12 -10 10
0 18 6 18 12 0 7 -7 10 -15 6 -10 -3 -13 -1 -8 6 5 8 1 10 -10 5 -12 -4 -15
-3 -10 5 4 7 5 12 2 12 -3 0 -6 -1 -7 -2z"/>
<path d="M1575 361 c-3 -5 -2 -12 3 -15 5 -3 9 1 9 9 0 17 -3 19 -12 6z"/>
<path d="M1734 358 c-4 -5 -3 -12 0 -15 3 -4 6 -1 6 7 0 9 3 10 13 1 10 -8 14
-7 14 2 0 15 -25 18 -33 5z"/>
<path d="M1669 343 c-13 -16 -12 -17 3 -5 9 8 23 10 29 6 8 -4 9 -3 5 4 -10
17 -21 15 -37 -5z"/>
<path d="M1815 330 c-4 -6 -11 -8 -16 -5 -5 4 -9 1 -9 -4 0 -17 27 -13 34 4 6
17 0 20 -9 5z"/>
<path d="M1560 325 c0 -2 6 -8 13 -14 10 -8 14 -7 14 2 0 8 -6 14 -14 14 -7 0
-13 -1 -13 -2z"/>
<path d="M1696 313 c-6 -14 -5 -15 5 -6 7 7 10 15 7 18 -3 3 -9 -2 -12 -12z"/>
<path d="M1730 321 c0 -6 4 -13 10 -16 6 -3 7 1 4 9 -7 18 -14 21 -14 7z"/>
<path d="M1549 298 c11 -15 11 -21 0 -35 -12 -17 -12 -17 6 0 19 17 19 17 0
35 -18 16 -18 16 -6 0z"/>
<path d="M1654 280 c0 -13 4 -16 10 -10 7 7 7 13 0 20 -6 6 -10 3 -10 -10z"/>
<path d="M1420 265 c0 -2 6 -8 13 -14 10 -8 14 -7 14 2 0 8 -6 14 -14 14 -7 0
-13 -1 -13 -2z"/>
<path d="M1680 255 c-7 -8 -16 -13 -20 -10 -4 2 -16 -5 -26 -18 -19 -22 -19
-22 1 -6 11 9 28 15 38 14 11 -2 16 -1 13 2 -3 4 -1 12 5 20 6 7 9 13 6 13 -2
0 -10 -7 -17 -15z"/>
<path d="M1564 238 c-12 -14 -13 -18 -3 -10 9 6 18 10 21 7 2 -3 5 2 5 10 0
19 0 19 -23 -7z"/>
<path d="M1386 238 c3 -5 10 -6 15 -3 13 9 11 12 -6 12 -8 0 -12 -4 -9 -9z"/>
<path d="M1479 208 c-4 -10 -4 -77 0 -72 6 5 10 74 4 74 -2 0 -3 -1 -4 -2z"/>
<path d="M1540 200 c-9 -6 -10 -10 -3 -10 6 0 15 5 18 10 8 12 4 12 -15 0z"/>
<path d="M1435 180 c-3 -5 -1 -10 4 -10 6 0 11 5 11 10 0 6 -2 10 -4 10 -3 0
-8 -4 -11 -10z"/>
<path d="M1370 161 c0 -6 4 -12 8 -15 5 -3 9 1 9 9 0 8 -4 15 -9 15 -4 0 -8
-4 -8 -9z"/>
</g>
</svg>
