<svg width="30" height="30" viewBox="0 0 30 30" fill="none" xmlns="http://www.w3.org/2000/svg">
<path d="M2.50962 7.78867L15 0.57735L27.4904 7.78867V22.2113L15 29.4227L2.50962 22.2113V7.78867Z" stroke="#7F85F8"/>
<path d="M10.546 14.96C10.546 14.3533 10.6487 13.7607 10.854 13.182C11.0687 12.594 11.3767 12.062 11.778 11.586C12.1887 11.1007 12.688 10.718 13.276 10.438C13.864 10.1487 14.5313 10.004 15.278 10.004C16.1647 10.004 16.9253 10.2093 17.56 10.62C18.1947 11.0213 18.666 11.5393 18.974 12.174L17.98 12.818C17.784 12.398 17.532 12.0667 17.224 11.824C16.9253 11.572 16.5987 11.3947 16.244 11.292C15.8987 11.1893 15.558 11.138 15.222 11.138C14.6713 11.138 14.1813 11.25 13.752 11.474C13.332 11.698 12.9773 11.9967 12.688 12.37C12.3987 12.7433 12.1793 13.1633 12.03 13.63C11.89 14.0873 11.82 14.5493 11.82 15.016C11.82 15.5293 11.904 16.024 12.072 16.5C12.2493 16.976 12.492 17.396 12.8 17.76C13.108 18.124 13.472 18.4133 13.892 18.628C14.312 18.8427 14.7693 18.95 15.264 18.95C15.6093 18.95 15.964 18.8893 16.328 18.768C16.692 18.6467 17.0327 18.46 17.35 18.208C17.6673 17.9467 17.9193 17.6107 18.106 17.2L19.156 17.774C18.9507 18.2687 18.6333 18.6887 18.204 19.034C17.7747 19.3793 17.294 19.6407 16.762 19.818C16.2393 19.9953 15.7213 20.084 15.208 20.084C14.5267 20.084 13.9013 19.9393 13.332 19.65C12.7627 19.3513 12.268 18.9593 11.848 18.474C11.4373 17.9793 11.1153 17.4287 10.882 16.822C10.658 16.206 10.546 15.5853 10.546 14.96Z" fill="black"/>
</svg>
