<svg width="25" height="25" viewBox="0 0 25 25" fill="none" xmlns="http://www.w3.org/2000/svg">
<g clip-path="url(#clip0_166_58)">
<path d="M12.5998 24.5728C7.98921 24.5728 3.544 22.0295 1.34301 17.6346C-1.69535 11.5644 0.585056 4.25573 6.53562 0.994708L7.57153 0.427246L7.26241 1.5672C6.51903 4.31102 6.81055 7.22171 8.0832 9.76298C9.46541 12.5239 11.8408 14.5816 14.7706 15.5562C17.7014 16.5308 20.8348 16.3061 23.5962 14.9239C23.7218 14.8611 23.8435 14.7942 23.9651 14.7274L25.001 14.1594L24.707 15.2913C23.7706 18.7459 21.4012 21.644 18.2065 23.2438C16.4051 24.1456 14.4881 24.5723 12.5998 24.5728ZM6.03249 2.48097C1.30129 5.71183 -0.378977 11.9489 2.24271 17.1842C5.09661 22.884 12.0549 25.1986 17.7557 22.3452C20.3462 21.0474 22.3477 18.8208 23.3755 16.1342C20.5447 17.3541 17.4033 17.4923 14.4529 16.5102C11.2678 15.4507 8.68634 13.2145 7.1835 10.2133C5.98072 7.81129 5.58415 5.10667 6.03249 2.48097Z" fill="#7F85F8"/>
</g>
<defs>
<clipPath id="clip0_166_58">
<rect width="25" height="25" fill="white"/>
</clipPath>
</defs>
</svg>
