<svg width="30" height="30" viewBox="0 0 30 30" fill="none" xmlns="http://www.w3.org/2000/svg">
<path d="M2.50962 7.78867L15 0.57735L27.4904 7.78867V22.2113L15 29.4227L2.50962 22.2113V7.78867Z" stroke="#7F85F8" stroke-opacity="0.8"/>
<path d="M18.7412 14.3706C18.7412 11.9569 16.7844 10 14.3706 10C11.9569 10 10 11.9569 10 14.3706C10 16.7844 11.9569 18.7413 14.3706 18.7413C15.465 18.7413 16.4628 18.3363 17.2297 17.6716L19.5581 20L20 19.5581L17.6716 17.2297C18.3362 16.4628 18.7412 15.465 18.7412 14.3706ZM14.3706 18.1162C12.3053 18.1162 10.625 16.4359 10.625 14.3706C10.625 12.3053 12.3053 10.625 14.3706 10.625C16.436 10.625 18.1163 12.3053 18.1163 14.3706C18.1163 16.436 16.4359 18.1162 14.3706 18.1162Z" fill="#7F85F8"/>
<path d="M13.2091 16.4244L16.6975 14.3656L13.2091 12.3069V16.4244ZM13.8341 13.4013L15.4678 14.3656L13.8341 15.33V13.4013Z" fill="#7F85F8"/>
</svg>
