<svg width="30" height="30" viewBox="0 0 30 30" fill="none" xmlns="http://www.w3.org/2000/svg">
<path d="M2.50962 7.78867L15 0.57735L27.4904 7.78867V22.2113L15 29.4227L2.50962 22.2113V7.78867Z" stroke="#7F85F8"/>
<path d="M11.5 13.5C12.327 13.5 13 14.173 13 15C13 15.827 12.327 16.5 11.5 16.5C10.673 16.5 10 15.827 10 15C10 14.173 10.673 13.5 11.5 13.5ZM11.5 12.5C10.119 12.5 9 13.6195 9 15C9 16.3805 10.119 17.5 11.5 17.5C12.881 17.5 14 16.3805 14 15C14 13.6195 12.881 12.5 11.5 12.5ZM19 17C18.4175 17 17.898 17.253 17.5325 17.6505L14.7885 16.187C14.6735 16.505 14.514 16.8015 14.3165 17.069L17.0605 18.5325C17.0245 18.683 17 18.838 17 19C17 20.1045 17.8955 21 19 21C20.1045 21 21 20.1045 21 19C21 17.8955 20.1045 17 19 17ZM19 20C18.4485 20 18 19.5515 18 19C18 18.4485 18.4485 18 19 18C19.5515 18 20 18.4485 20 19C20 19.5515 19.5515 20 19 20ZM19 9C17.8955 9 17 9.8955 17 11C17 11.162 17.0245 11.317 17.0605 11.4675L14.3165 12.931C14.514 13.199 14.673 13.495 14.7885 13.813L17.5325 12.3495C17.898 12.747 18.4175 13 19 13C20.1045 13 21 12.1045 21 11C21 9.8955 20.1045 9 19 9ZM19 12C18.4485 12 18 11.5515 18 11C18 10.4485 18.4485 10 19 10C19.5515 10 20 10.4485 20 11C20 11.5515 19.5515 12 19 12Z" fill="black"/>
</svg>
