<svg width="60" height="14" viewBox="0 0 60 14" fill="none" xmlns="http://www.w3.org/2000/svg">
<path d="M18.6764 2.0987C18.4565 1.27816 17.8125 0.631188 16.9957 0.410272C15.5035 0 9.53455 0 9.53455 0C9.53455 0 3.56564 0 2.07341 0.394493C1.27232 0.615408 0.612599 1.27816 0.392691 2.0987C0 3.59777 0 6.70637 0 6.70637C0 6.70637 0 9.83076 0.392691 11.314C0.612599 12.1346 1.25661 12.7816 2.07341 13.0025C3.58135 13.4127 9.53455 13.4127 9.53455 13.4127C9.53455 13.4127 15.5035 13.4127 16.9957 13.0183C17.8125 12.7973 18.4565 12.1504 18.6764 11.3298C19.0691 9.83076 19.0691 6.72215 19.0691 6.72215C19.0691 6.72215 19.0848 3.59777 18.6764 2.0987Z" fill="#FF0000"/>
<path d="M7.63393 3.83447V9.57829L12.5975 6.70638L7.63393 3.83447Z" fill="white"/>
<path d="M27.6926 12.2134C27.3156 11.961 27.0486 11.5665 26.8915 11.0142C26.7345 10.4777 26.6559 9.75182 26.6559 8.86815V7.65312C26.6559 6.75368 26.7502 6.02781 26.9229 5.47552C27.1114 4.92323 27.3942 4.52874 27.7712 4.27626C28.1638 4.02379 28.6665 3.89755 29.2948 3.89755C29.9074 3.89755 30.41 4.02379 30.787 4.27626C31.164 4.52874 31.431 4.93901 31.6038 5.47552C31.7766 6.01203 31.8709 6.7379 31.8709 7.65312V8.86815C31.8709 9.7676 31.7923 10.4777 31.6195 11.03C31.4467 11.5665 31.1797 11.9768 30.8027 12.2292C30.4257 12.4817 29.9074 12.6079 29.2634 12.6079C28.6037 12.5922 28.0696 12.4659 27.6926 12.2134ZM29.8132 10.888C29.9231 10.6197 29.9702 10.1621 29.9702 9.54668V6.92725C29.9702 6.32762 29.9231 5.88579 29.8132 5.60176C29.7032 5.31772 29.5304 5.19149 29.2634 5.19149C29.0121 5.19149 28.8236 5.3335 28.7293 5.60176C28.6194 5.88579 28.5722 6.32762 28.5722 6.92725V9.54668C28.5722 10.1621 28.6194 10.6197 28.7293 10.888C28.8236 11.1562 29.0121 11.2982 29.2791 11.2982C29.5304 11.2982 29.7032 11.172 29.8132 10.888Z" fill="white"/>
<path d="M56.6889 8.88392V9.30998C56.6889 9.84649 56.7047 10.2568 56.7361 10.525C56.7675 10.7933 56.8303 10.9984 56.9403 11.1089C57.0345 11.2351 57.1916 11.2982 57.4115 11.2982C57.6942 11.2982 57.8827 11.1878 57.9927 10.9668C58.1026 10.7459 58.1497 10.383 58.1654 9.86227L59.7833 9.95695C59.799 10.0358 59.799 10.1305 59.799 10.2568C59.799 11.03 59.5948 11.6138 59.1707 11.9925C58.7466 12.3712 58.1497 12.5606 57.3801 12.5606C56.4533 12.5606 55.8093 12.2608 55.4324 11.6769C55.0554 11.0931 54.8669 10.1936 54.8669 8.96282V7.49531C54.8669 6.23293 55.0554 5.3177 55.4481 4.73385C55.8407 4.15 56.5005 3.86597 57.4272 3.86597C58.0712 3.86597 58.5738 3.9922 58.9194 4.2289C59.265 4.4656 59.5006 4.84431 59.642 5.33348C59.7833 5.83843 59.8461 6.53274 59.8461 7.41641V8.85236H56.6889V8.88392ZM56.9246 5.34926C56.8303 5.4755 56.7675 5.66486 56.7361 5.93311C56.7047 6.20137 56.6889 6.61164 56.6889 7.16393V7.76356H58.0712V7.16393C58.0712 6.62742 58.0555 6.21715 58.0241 5.93311C57.9927 5.64908 57.9141 5.45972 57.8199 5.34926C57.7256 5.2388 57.5686 5.17568 57.3801 5.17568C57.1602 5.15991 57.0188 5.22302 56.9246 5.34926Z" fill="white"/>
<path d="M23.106 8.72613L20.9697 0.946747H22.8389L23.5929 4.46561C23.7814 5.3335 23.9228 6.07514 24.017 6.69055H24.0641C24.127 6.24872 24.2683 5.52285 24.4882 4.48139L25.2736 0.946747H27.1428L24.9752 8.72613V12.4501H23.1217V8.72613H23.106Z" fill="white"/>
<path d="M37.9497 4.05533V12.4659H36.4732L36.3161 11.4402H36.269C35.8763 12.2134 35.2637 12.6079 34.4626 12.6079C33.9128 12.6079 33.5044 12.4186 33.2374 12.0556C32.9704 11.6927 32.8447 11.1246 32.8447 10.3356V4.05533H34.7296V10.2252C34.7296 10.6039 34.7768 10.8722 34.8553 11.03C34.9338 11.1878 35.0752 11.2667 35.2637 11.2667C35.4208 11.2667 35.5779 11.2193 35.7349 11.1089C35.892 11.0142 36.002 10.8879 36.0648 10.7301V4.05533H37.9497Z" fill="white"/>
<path d="M47.6099 4.05533V12.4659H46.1334L45.9763 11.4402H45.9292C45.5365 12.2134 44.9239 12.6079 44.1228 12.6079C43.573 12.6079 43.1646 12.4186 42.8976 12.0556C42.6306 11.6927 42.5049 11.1246 42.5049 10.3356V4.05533H44.3898V10.2252C44.3898 10.6039 44.437 10.8722 44.5155 11.03C44.594 11.1878 44.7354 11.2667 44.9239 11.2667C45.081 11.2667 45.2381 11.2193 45.3951 11.1089C45.5522 11.0142 45.6622 10.8879 45.725 10.7301V4.05533H47.6099Z" fill="white"/>
<path d="M43.0704 2.47738H41.2012V12.4501H39.3634V2.47738H37.4942V0.946747H43.0704V2.47738Z" fill="white"/>
<path d="M53.8459 5.39662C53.7359 4.86011 53.5474 4.4814 53.2961 4.2447C53.0448 4.00801 52.6835 3.88177 52.2437 3.88177C51.8981 3.88177 51.5682 3.97645 51.2698 4.18158C50.9714 4.37094 50.7357 4.63919 50.5787 4.95479H50.5629V0.520691H48.7408V12.4501H50.2959L50.4844 11.6612H50.5315C50.6729 11.9452 50.8928 12.1661 51.1913 12.3397C51.4897 12.4975 51.8039 12.5922 52.1651 12.5922C52.8092 12.5922 53.2647 12.2923 53.5631 11.7085C53.8616 11.1247 54.0187 10.1936 54.0187 8.94705V7.62156C54.003 6.659 53.9558 5.91735 53.8459 5.39662ZM52.118 8.82082C52.118 9.43622 52.0866 9.90961 52.0395 10.2568C51.9924 10.6039 51.8981 10.8564 51.7882 10.9984C51.6625 11.1404 51.5054 11.2193 51.3169 11.2193C51.1598 11.2193 51.0185 11.1878 50.8928 11.1089C50.7672 11.03 50.6572 10.9195 50.5787 10.7775V6.01203C50.6415 5.79111 50.7514 5.60176 50.9085 5.44396C51.0656 5.30194 51.2384 5.22304 51.4112 5.22304C51.5997 5.22304 51.7567 5.30194 51.851 5.44396C51.9609 5.60176 52.0238 5.85423 52.0709 6.20138C52.118 6.56432 52.1337 7.06927 52.1337 7.71624V8.82082H52.118Z" fill="white"/>
</svg>
